<?xml version="1.0" encoding="UTF-8"?>
<svg id="Capa_1" data-name="Capa 1" xmlns="http://www.w3.org/2000/svg" viewBox="0 0 90 30">
  <defs>
    <style>
      .cls-1 {
        fill: #fff;
        stroke-width: 0px;
      }
    </style>
  </defs>
  <path class="cls-1" d="M15.83,8.64l-2.88,3.91h15.67c.79,0,.78.3.4.83-.39.53-1.05,1.46-1.45,2-.2.27-.57.77.65.77h6.41l1.9-2.58c1.18-1.6.1-4.92-4.11-4.92H15.83Z"/>
  <path class="cls-1" d="M11.79,21.36l5.78-7.85h7.17c.79,0,.78.3.4.83l-1.46,1.99c-.2.27-.57.77.65.77h9.6c-.8,1.09-3.39,4.26-8.04,4.26h-14.09ZM44.86,17.11l-3.13,4.26h-8.26l3.13-4.26h8.26ZM57.52,16.14h-20.21l5.53-7.51h8.26l-3.17,4.3h3.69l3.17-4.3h8.26l-5.53,7.51ZM56.81,17.11l-3.13,4.26h-8.26l3.13-4.26h8.26ZM0,18.79h12.17l-.66.9H0v-.9ZM0,17.11h13.41l-.67.9H0v-.9ZM0,20.47h10.93l-.66.9H0v-.9ZM90,19.69h-12.13l.67-.9h11.46v.9ZM90,21.36h-13.36l.66-.9h12.7v.9ZM79.78,17.11h10.22v.91h-10.89l.66-.91ZM74.48,8.64l-5.53,7.51h-8.75l5.53-7.51h8.75ZM59.5,17.11s-.6.83-.9,1.22c-1.04,1.4-.12,3.04,3.26,3.04h13.26l3.13-4.26h-18.76Z"/>
</svg>