<?xml version="1.0" encoding="UTF-8"?>
<svg id="Capa_1" data-name="Capa 1" xmlns="http://www.w3.org/2000/svg" viewBox="0 0 90 30">
  <defs>
    <style>
      .cls-1 {
        fill: #fff;
        stroke-width: 0px;
      }
    </style>
  </defs>
  <path class="cls-1" d="M28.66,27.47c0-.11.02-.23.03-.37h60.25v.37H28.66Z"/>
  <path class="cls-1" d="M48.15,5.26c.59,0,1.17,0,1.75,0,1,0,2.01.02,3.01,0,.43-.01.7.15.93.5.91,1.4,1.8,2.82,2.78,4.18,1.96,2.74,3.97,5.45,5.97,8.16.12.16.32.25.48.37.06-.2.16-.39.16-.59,0-3.23,0-6.46,0-9.7,0-1.05-.16-1.28-1.15-1.68-.39-.16-.78-.31-1.18-.46q-.48-.18-.4-.74h6.44c.12.54.11.55-.36.73-.22.09-.44.19-.67.26-.82.28-1.17.89-1.19,1.72-.01.4-.02.8-.02,1.19,0,4.92.01,9.83.02,14.75,0,.47-.05.52-.5.52-.27,0-.55-.02-.82,0-.43.05-.7-.13-.95-.47-1.55-2.12-3.11-4.24-4.68-6.35-1.74-2.35-3.5-4.69-5.24-7.04-.11-.15-.21-.3-.35-.42-.07-.07-.21-.14-.29-.11-.08.03-.15.16-.17.27-.03.13-.02.27-.02.41,0,3.53,0,7.06,0,10.58,0,1.34.16,1.56,1.43,2.01.34.12.69.24,1.03.36q.47.17.39.73h-6.55c-.13-.53-.12-.56.37-.75.3-.12.59-.24.88-.36.52-.21.82-.6.89-1.15.04-.38.07-.77.07-1.16,0-4.13,0-8.26.01-12.39,0-.92-.32-1.61-1.11-2.08-.22-.13-.42-.32-.65-.43-.37-.18-.44-.45-.32-.86Z"/>
  <path class="cls-1" d="M46.14,15.57q.05.58-.44.77c-1.28.5-1.31.56-1.31,1.92,0,1.66,0,3.32.02,4.98,0,.28-.1.47-.36.54-2.31.61-4.63,1.13-7.03,1.07-1.3-.04-2.59-.23-3.8-.74-1.8-.75-3.07-2.06-3.71-3.88-1.15-3.29-1.2-6.64,0-9.92,1.08-2.96,3.31-4.64,6.37-5.21,2.09-.39,4.2-.36,6.26.26.7.21,1.34.57,1.92,1.02.6.47.98,1.34.47,2.22-.39.67-.73,1.37-1.06,2.06-.13.27-.29.39-.52.31-.23-.62-.38-1.23-.67-1.77-.99-1.84-2.54-2.81-4.65-2.83-.5,0-1,.04-1.49.13-1.37.25-2.25,1.07-2.69,2.38-.44,1.29-.51,2.63-.52,3.97,0,1.65.02,3.3.14,4.94.07.87.29,1.75.59,2.58.66,1.82,2.07,2.74,3.96,2.94.54.06,1.1.07,1.63.01.92-.11,1.44-.66,1.46-1.59.04-1.39.02-2.78.02-4.16,0-.35-.17-.61-.46-.79-.27-.17-.54-.34-.84-.46-.33-.13-.3-.37-.25-.61.01-.07.21-.13.32-.13,2.11,0,4.22,0,6.33,0,.1,0,.2.01.32.02Z"/>
  <path class="cls-1" d="M77.48,24.44h-8.78v-.58c.4-.14.8-.29,1.21-.41.63-.19.93-.62.96-1.26.02-.5.05-1,.05-1.5,0-4.1,0-8.19,0-12.29,0-.36-.03-.73-.05-1.09-.02-.45-.26-.74-.67-.9-.35-.13-.7-.26-1.06-.39q-.5-.18-.43-.74c.08,0,.17-.03.26-.03,3.41,0,6.82-.01,10.23.04.86.01,1.75.2,2.57.46,1.79.56,2.7,1.88,2.9,3.71.1.88.06,1.75-.17,2.61-.6,2.22-2.1,3.56-4.23,4.25-1.14.37-2.31.49-3.51.43-.2,0-.31-.08-.36-.27-.05-.17-.14-.34-.2-.51-.12-.31-.05-.43.28-.48.46-.07.93-.1,1.38-.22,1.63-.44,2.54-1.55,2.71-3.36.11-1.12-.03-2.22-.36-3.3-.35-1.16-1.19-1.68-2.34-1.76-.68-.05-1.37-.04-2.05,0-.71.03-.92.28-.92.99,0,4.54,0,9.08,0,13.62,0,.31.03.61.06.92.04.48.29.81.75.96.43.14.87.26,1.31.39q.52.15.46.73Z"/>
  <path class="cls-1" d="M18.98,2.53c0,.19,0,.31,0,.44,0,2.02,0,4.05,0,6.07,0,.32.08.43.42.42,2.01-.02,4.01,0,6.02,0,.13,0,.26,0,.45,0-.1.32-.18.58-.26.83-.33,1.01-.67,2.02-.99,3.04-.08.25-.2.33-.46.33-1.06-.02-2.12,0-3.18,0-2.86-.02-5.51-2.19-6.02-5-.14-.77-.12-1.58-.15-2.37-.02-.7-.01-1.41,0-2.11,0-.11.09-.27.17-.3,1.31-.44,2.63-.87,4.01-1.32Z"/>
  <path class="cls-1" d="M8.36,27c0-.2,0-.32,0-.44,0-2.02,0-4.05,0-6.07,0-.33-.09-.43-.42-.42-2.01.01-4.01,0-6.02,0-.13,0-.26,0-.45,0,.25-.76.47-1.44.7-2.13.2-.6.39-1.21.59-1.81.05-.17.14-.26.34-.25,1.17.01,2.35-.05,3.52.02,3.03.18,5.28,2.37,5.78,4.99.16.86.12,1.76.15,2.64.02.61.01,1.23,0,1.84,0,.1-.07.27-.14.29-1.32.45-2.65.88-4.05,1.34Z"/>
  <path class="cls-1" d="M25.81,20.08c-.16,0-.29,0-.43,0-2,0-3.99,0-5.99,0-.33,0-.43.08-.42.42.02,2.03,0,4.05,0,6.08,0,.12,0,.24,0,.42-.36-.11-.67-.21-.98-.31-.96-.31-1.92-.64-2.88-.94-.24-.08-.34-.18-.34-.45.02-1.09,0-2.18,0-3.28.02-2.81,2.2-5.47,4.98-5.97.82-.15,1.68-.12,2.52-.15.65-.02,1.3-.01,1.95,0,.11,0,.28.11.31.21.43,1.27.85,2.54,1.26,3.81,0,.03,0,.07,0,.16Z"/>
  <path class="cls-1" d="M8.43,2.55c.55.18,1.06.34,1.56.5.76.25,1.51.51,2.27.74.24.07.31.2.31.44-.01,1.1,0,2.21,0,3.31-.03,2.82-2.22,5.44-4.99,5.96-.48.09-.97.13-1.46.14-.99.02-1.98,0-2.97,0-.18,0-.3-.02-.36-.22-.41-1.29-.83-2.57-1.25-3.85,0-.02,0-.04.02-.11.12,0,.25-.02.38-.02,1.98,0,3.96,0,5.95,0,.51,0,.51,0,.51-.5,0-1.98,0-3.96,0-5.94,0-.14.02-.28.03-.47Z"/>
  <path class="cls-1" d="M16.83,14.77c.01,1.65-1.27,3.14-3.16,3.17-1.74.03-3.15-1.43-3.14-3.18,0-1.76,1.42-3.18,3.16-3.17,1.75,0,3.15,1.43,3.15,3.19Z"/>
</svg>