<?xml version="1.0" encoding="UTF-8"?>
<svg id="Capa_1" data-name="Capa 1" xmlns="http://www.w3.org/2000/svg" viewBox="0 0 90 30">
  <defs>
    <style>
      .cls-1 {
        fill: #fff;
        stroke-width: 0px;
      }
    </style>
  </defs>
  <path class="cls-1" d="M14.79.78c20.13,0,40.26,0,60.39,0,.22.02.44.04.66.06,1.39.12,2.73.45,4.01,1,2.26.96,4.15,2.43,5.64,4.39,1.61,2.11,2.55,4.49,2.86,7.12.15,1.31.12,2.62-.09,3.92-.28,1.78-.86,3.45-1.77,5.01-1.33,2.28-3.15,4.06-5.47,5.32-2,1.08-4.14,1.62-6.41,1.62-19.77,0-39.53,0-59.3,0-.87,0-1.72-.09-2.57-.26-1.67-.33-3.23-.97-4.66-1.89-1.2-.77-2.26-1.71-3.17-2.8-1.2-1.43-2.08-3.04-2.65-4.81-.33-1.04-.56-2.1-.64-3.19-.02-.21-.04-.42-.06-.63,0-.43,0-.87,0-1.3,0-.06.02-.12.03-.17.08-.66.13-1.33.25-1.98.29-1.52.82-2.95,1.58-4.29.73-1.3,1.65-2.46,2.74-3.47,1.04-.96,2.21-1.75,3.49-2.35,1.32-.62,2.7-1.02,4.15-1.18.33-.04.66-.07.99-.1ZM44.99,27.91c9.6,0,19.2,0,28.79,0,.74,0,1.49-.06,2.22-.17,1.57-.25,3.05-.75,4.44-1.52,2.2-1.22,3.93-2.91,5.17-5.1.95-1.69,1.47-3.5,1.58-5.43.08-1.54-.1-3.05-.58-4.52-.72-2.23-1.97-4.11-3.71-5.67-1.11-.99-2.35-1.78-3.73-2.35-1.65-.69-3.37-1.07-5.16-1.07-19.35,0-38.7,0-58.05,0-1.17,0-2.33.17-3.45.48-2.1.58-3.96,1.59-5.56,3.06-1.73,1.58-2.95,3.49-3.63,5.73-.46,1.49-.61,3.02-.5,4.58.08,1.08.29,2.13.64,3.14.67,1.93,1.75,3.6,3.21,5.03,1.34,1.3,2.88,2.28,4.62,2.94,1.56.59,3.17.88,4.84.88,9.62,0,19.24,0,28.86,0Z"/>
  <path class="cls-1" d="M45.12,26.77c-9.26,0-18.52,0-27.78,0-1.81,0-3.56-.28-5.26-.93-1.75-.67-3.31-1.65-4.64-2.97-1.51-1.51-2.55-3.29-3.08-5.36-.26-1.03-.36-2.08-.3-3.15.1-1.84.63-3.56,1.6-5.13,1.54-2.5,3.73-4.21,6.46-5.25,1.19-.46,2.43-.73,3.7-.85.53-.05,1.06-.06,1.59-.06,18.48,0,36.97,0,55.45,0,1.46,0,2.89.17,4.29.59,1.54.46,2.96,1.15,4.25,2.11,1.23.92,2.27,2.01,3.09,3.31.76,1.2,1.27,2.5,1.52,3.9.36,2.03.17,4.02-.58,5.94-.56,1.43-1.39,2.68-2.45,3.78-1.35,1.41-2.96,2.44-4.77,3.14-1.15.45-2.35.74-3.58.85-.63.06-1.26.09-1.89.09-9.21,0-18.41,0-27.62,0ZM74.69,15.76s.02-.02.02-.02c.03-.01.06-.02.09-.03.93-.32,1.66-.88,2.11-1.77.36-.72.41-1.48.3-2.27-.15-1.02-.62-1.85-1.48-2.44-.88-.6-1.87-.88-2.92-.88-3.88-.02-7.76,0-11.64,0-.06,0-.12,0-.18,0,0,.05,0,.08,0,.11.03,1.61.06,3.21.09,4.82.02,1.17.05,2.34.07,3.52.03,1.49.05,2.98.07,4.48,0,.12.03.17.16.17,4.01-.02,8.02-.04,12.03-.05.6,0,1.16-.14,1.67-.45.68-.41,1.24-.94,1.43-1.73.09-.39.09-.81.08-1.21,0-.47-.14-.92-.42-1.31-.37-.51-.9-.77-1.5-.93ZM19,14.25c0-.06,0-.11,0-.16.02-.92.04-1.84.06-2.77.02-.88.03-1.76.05-2.64,0-.21,0-.21-.19-.21-2.08,0-4.15,0-6.23,0-.05,0-.1,0-.16,0,.08,4.38.17,8.73.25,13.08h6.05c.03-1.51.07-3.01.1-4.5h3.66v4.54c.07,0,.12,0,.16,0,1.83,0,3.65,0,5.48,0,.13,0,.15-.04.16-.16.04-.95.08-1.91.13-2.86.05-1.19.11-2.37.16-3.56.06-1.4.13-2.8.19-4.19.03-.74.07-1.49.1-2.23,0-.04-.01-.07-.01-.09h-6.4v5.75h-3.57ZM43.38,12.38h9.66c.06-1.31.12-2.59.19-3.89h-16.3c0,.06,0,.1,0,.15.02.77.04,1.54.06,2.31.04,1.59.08,3.18.12,4.77.02.67.03,1.35.05,2.02.03,1.22.06,2.44.09,3.66,0,.13.03.17.17.17,5.03,0,10.05,0,15.08,0,.05,0,.09,0,.14,0v-2.42h-9.36v-2.09h6.94v-2.75h-6.85v-1.93ZM58.98,14.45h-4.11v2.46h4.11v-2.46ZM30.84,16.91h4.1v-2.46h-4.1v2.46Z"/>
  <path class="cls-1" d="M67.45,14.54c.02-.9.04-1.79.06-2.69.17,0,.32,0,.47,0,.67,0,1.34,0,2,0,.56,0,1.26.56,1.33,1.09.11.85-.4,1.57-1.33,1.6-.8.03-1.61,0-2.41,0-.03,0-.05,0-.11-.01Z"/>
  <path class="cls-1" d="M67.34,19.08c.02-.76.03-1.52.05-2.3.06,0,.12,0,.18,0,.73,0,1.46,0,2.18,0,.51,0,.86.23,1.02.72.22.66.01,1.26-.68,1.56-.05.02-.1.03-.16.03-.84,0-1.68,0-2.53,0-.02,0-.04,0-.07,0Z"/>
</svg>