<?xml version="1.0" encoding="UTF-8"?>
<svg id="Capa_1" data-name="Capa 1" xmlns="http://www.w3.org/2000/svg" viewBox="0 0 382 220">
  <defs>
    <style>
      .cls-1 {
        fill: #fff;
        stroke-width: 0px;
      }
    </style>
  </defs>
  <g>
    <path class="cls-1" d="M55.48,38.54l.6-1.85s-.07-.01-.11-.01c-13.13-2.62-26.45-2.62-39.59,0-.04.01-.07.01-.11.01l.6,1.85c6.41-1.22,12.86-1.84,19.32-1.84s12.89.61,19.3,1.84Z"/>
    <path class="cls-1" d="M46.11,8.47c-2.64-1.8-5.75-2.76-9.02-2.76h-1.86c-3.26,0-6.38.96-9.02,2.76,6.63-.42,13.28-.42,19.9,0Z"/>
    <path class="cls-1" d="M41.16,23.7h-3v3h-4v-3h-3v-4h3v-3h4v3h3v4ZM61.13,14.23c-.91-1.44-2.4-2.4-4.09-2.64l-.21-.03c-2.57-.35-5.16-.65-7.75-.86h-.06c-8.57-.74-17.18-.74-25.75,0h-.06c-2.59.22-5.16.51-7.75.86l-.21.03c-1.69.24-3.17,1.19-4.09,2.64-.91,1.45-1.12,3.2-.61,4.82l5.07,15.79c.1-.06.2-.1.31-.12,13.39-2.67,26.97-2.67,40.37,0,.11.03.22.06.31.12l5.07-15.79c.57-1.62.35-3.37-.56-4.82Z"/>
  </g>
  <g>
    <path class="cls-1" d="M40.32,129.04c-8.02,0-14.76-1.79-20.24-5.38-5.47-3.59-9.33-8.46-11.56-14.63l13.65-7.98c3.16,8.25,9.37,12.37,18.62,12.37,4.47,0,7.75-.81,9.83-2.43,2.08-1.62,3.12-3.66,3.12-6.13,0-2.85-1.27-5.07-3.82-6.65-2.54-1.58-7.09-3.3-13.65-5.15-3.62-1.08-6.69-2.16-9.19-3.24-2.51-1.08-5.01-2.52-7.52-4.34-2.51-1.81-4.41-4.11-5.72-6.88-1.31-2.78-1.97-6.01-1.97-9.71,0-7.32,2.6-13.16,7.81-17.52,5.2-4.35,11.47-6.53,18.79-6.53,6.55,0,12.32,1.6,17.29,4.8,4.97,3.2,8.85,7.65,11.62,13.36l-13.41,7.75c-3.24-6.94-8.4-10.41-15.5-10.41-3.32,0-5.92.75-7.81,2.25-1.89,1.5-2.83,3.45-2.83,5.84,0,2.54,1.06,4.61,3.18,6.19,2.12,1.58,6.19,3.3,12.2,5.15,2.47.77,4.34,1.37,5.61,1.79,1.27.42,3.01,1.08,5.2,1.97,2.2.89,3.89,1.72,5.09,2.49,1.19.77,2.56,1.81,4.11,3.12,1.54,1.31,2.72,2.66,3.53,4.05s1.5,3.06,2.08,5.03.87,4.11.87,6.42c0,7.48-2.72,13.41-8.15,17.81s-12.51,6.59-21.22,6.59Z"/>
    <path class="cls-1" d="M123.34,69.6h14.92v57.82h-14.92v-6.82c-4.47,5.63-10.75,8.44-18.85,8.44s-14.32-2.95-19.83-8.85c-5.51-5.9-8.27-13.13-8.27-21.68s2.76-15.79,8.27-21.68c5.51-5.9,12.12-8.85,19.83-8.85,8.09,0,14.38,2.82,18.85,8.44v-6.82ZM95.82,110.25c3.01,3.05,6.82,4.57,11.45,4.57s8.46-1.52,11.51-4.57c3.04-3.04,4.57-6.96,4.57-11.74s-1.52-8.69-4.57-11.74c-3.05-3.04-6.88-4.57-11.51-4.57s-8.44,1.52-11.45,4.57c-3.01,3.05-4.51,6.96-4.51,11.74s1.5,8.69,4.51,11.74Z"/>
    <path class="cls-1" d="M183.94,67.98c6.32,0,11.54,2.12,15.67,6.36,4.12,4.24,6.19,10.1,6.19,17.58v35.5h-14.92v-33.65c0-3.85-1.04-6.8-3.12-8.85-2.08-2.04-4.86-3.06-8.33-3.06-3.86,0-6.94,1.2-9.25,3.59-2.31,2.39-3.47,5.98-3.47,10.75v31.22h-14.92v-57.82h14.92v6.48c3.62-5.4,9.37-8.1,17.23-8.1Z"/>
    <path class="cls-1" d="M262.34,46.47h14.92v80.95h-14.92v-6.82c-4.39,5.63-10.64,8.44-18.73,8.44s-14.44-2.95-19.95-8.85c-5.51-5.9-8.27-13.13-8.27-21.68s2.76-15.79,8.27-21.68c5.51-5.9,12.16-8.85,19.95-8.85s14.34,2.82,18.73,8.44v-29.95ZM234.88,110.25c3.04,3.05,6.88,4.57,11.51,4.57s8.44-1.52,11.45-4.57c3.01-3.04,4.51-6.96,4.51-11.74s-1.5-8.69-4.51-11.74c-3.01-3.04-6.82-4.57-11.45-4.57s-8.46,1.52-11.51,4.57c-3.05,3.05-4.57,6.96-4.57,11.74s1.52,8.69,4.57,11.74Z"/>
    <path class="cls-1" d="M298.31,62.66c-2.47,0-4.61-.91-6.42-2.72-1.81-1.81-2.72-3.95-2.72-6.42s.9-4.63,2.72-6.48c1.81-1.85,3.95-2.78,6.42-2.78s4.72.93,6.53,2.78c1.81,1.85,2.72,4.01,2.72,6.48s-.91,4.61-2.72,6.42c-1.81,1.81-3.99,2.72-6.53,2.72ZM290.9,127.42v-57.82h14.92v57.82h-14.92Z"/>
  </g>
  <g>
    <path class="cls-1" d="M147.04,215.27c-18.38,0-29.69-11.2-29.69-30.12,0-25.77,18.92-48.17,43.82-48.17,9.35,0,18.27,4.35,22.4,14.14l3.59-13.05h4.24l-5.22,24.68h-4.89c-.11-13.37-7.94-21.64-20.12-21.64-20.01,0-33.06,22.18-33.06,46,0,15.77,7.29,23.7,20.66,23.7,12.18,0,23.6-7.83,28.49-22.18h4.46c-5.76,17.18-19.14,26.64-34.69,26.64Z"/>
    <path class="cls-1" d="M246.87,214.95c-1.63.22-3.37.22-5-.33-2.61-.76-4.57-2.39-5.33-5.44-.54-1.52-.65-3.15-.54-5.11-4.89,6.53-11.85,10.87-19.25,11.09-1.52.11-3.15,0-4.57-.22-10.11-1.41-17.29-9.13-17.29-21.97,0-16.85,11.53-31.75,26.97-33.71,1.74-.22,3.37-.22,5.11-.11,8.05.33,13.59,4.68,15.44,12.72l5.22-11.85h6.74l-8.37,38.6c-.76,3.59-1.41,5.98-1.52,8.05-.11,3.26,1.09,4.46,2.94,4.46,2.39,0,4.35-1.96,5.22-6.31l.76-3.48h3.59l-.76,3.37c-1.52,6.52-4.46,9.79-9.35,10.22ZM239.91,180.26c0-1.63-.11-3.04-.22-4.35-.87-7.61-4.24-11.53-9.68-12.5-1.09-.11-2.17-.22-3.48-.22-12.61.54-20.99,15.77-21.2,30.12,0,2.94.22,5.55.87,7.72,1.63,6.52,5.54,9.89,11.53,9.89,12.07,0,21.96-14.68,22.18-30.66Z"/>
    <path class="cls-1" d="M286.56,180.26l-7.18,33.93h-9.79l10-47.19c.43-2.28-.65-3.37-2.17-3.37h-6.42l.87-3.59h17.83l.76.98-2.61,11.96h.22c6.09-7.83,13.81-14.03,20.66-14.03,4.89,0,7.72,3.04,7.72,6.74s-2.5,6.09-5.76,6.31c-.76.11-1.41,0-2.07-.22-1.3-.44-2.28-1.41-2.61-2.72-.33-1.52.11-2.83.87-3.81-.44-.33-.87-.65-1.63-.87-5,.11-11.31,5-18.7,15.88Z"/>
    <path class="cls-1" d="M344.52,215.27c-13.27,0-22.29-8.48-22.29-22.07,0-17.72,12.29-32.73,30.45-34.03,1.41-.11,2.72-.22,4.02-.11,9.35.33,15.55,4.78,15.88,11.2.11.65,0,1.41-.11,2.17-1.2,10.22-14.35,19.68-39.91,20.12,0,.65,0,1.31.11,1.96.22,10.77,5.65,16.85,14.35,16.85,1.74,0,3.26-.22,4.78-.76,6.52-1.41,12.07-5.76,15.11-13.38h3.81c-4.46,11.74-13.59,18.05-26.21,18.05ZM332.67,189.29c19.79,0,30.77-6.74,30.99-17.51.11-1.2-.11-2.17-.33-3.15-.98-4.02-4.24-6.09-8.59-6.09-11.63,0-20.88,11.31-22.07,26.75Z"/>
  </g>
</svg>