<?xml version="1.0" encoding="UTF-8"?>
<svg id="Capa_1" data-name="Capa 1" xmlns="http://www.w3.org/2000/svg" viewBox="0 0 90 30">
  <defs>
    <style>
      .cls-1 {
        fill: #fff;
        stroke-width: 0px;
      }
    </style>
  </defs>
  <g>
    <path class="cls-1" d="M16.05.98C8.28.98,1.99,7.26,1.99,15s6.29,14.02,14.06,14.02,14.06-6.27,14.06-14.02S23.81.98,16.05.98M12.46,19.76l-2.29.05s.34-4.19.34-4.58.2-1.47-.96-1.47-1.37,1.37-1.37,1.37l-.42,4.65h-2.27l.65-7.84,1.97-.03v1.14s.67-1.31,2.54-1.29c2.09.03,2.28,2.37,2.28,2.37l-.46,5.61ZM20.91,16.67l-4.7-.05c-.07.97.87,1.44,1.62,1.52,1.44.07,2.34-.35,2.34-.35,0,0,.12,1.37.17,1.64-1.34.65-3.06.52-3.63.47-2.41-.42-2.76-2.74-2.66-3.83.52-4.06,3.46-4.36,4.16-4.33,3.98.17,2.71,4.92,2.71,4.92M25.52,17.97c.27,0,.7-.02.7-.02,0,0-.1,1.77-.1,1.79-.6.3-1.57.25-1.84.22-2.06-.15-1.82-2.54-1.82-2.54l.32-3.68h-.97l.15-1.74h.97l.15-1.52,2.31-.65-.22,2.14,1.69.02-.15,1.82-1.64-.05s-.17,1.39-.27,2.79c-.1,1.39.45,1.42.72,1.42"/>
    <path class="cls-1" d="M17.98,13.36c-.87-.03-1.51.74-1.66,1.6h2.71s.12-1.5-1.05-1.6"/>
  </g>
  <g>
    <polygon class="cls-1" points="35.54 9.32 34.02 9.32 32.92 19.93 39.34 19.93 39.46 18.72 34.68 18.72 35.54 9.32"/>
    <path class="cls-1" d="M44.15,11.73c-2.27,0-3.89,1.52-4.2,3.91-.43,3.29,1.34,4.63,3.39,4.61,2.05-.02,3.73-1.47,4.03-4.27.27-2.51-1.03-4.25-3.22-4.25M45.81,16.06c-.2,1.68-1.03,2.9-2.46,2.88-1.24-.02-2.15-.89-1.85-3.2.22-1.71,1-2.69,2.53-2.69,1.4,0,2.01,1.16,1.79,3.01"/>
    <path class="cls-1" d="M54.42,12.3c-3.78-2.02-5.86,1.96-5.87,3.33-.42,3.89,1.71,4.29,2.93,4.26,1.32-.03,2.24-.8,2.24-.84-.05,2.25-1.16,2.48-2,2.59-1.21.16-2.93-.59-2.93-.59l-.13,1.61c6.36,1.69,6.5-3.07,6.5-3.07l.8-7.59-1.46-.04-.08.35ZM53.82,17.75c-.11.15-1.32,1-2.65.73-1.17-.24-1.19-2.03-1.09-2.66.31-1.88,1.08-2.48,2.11-2.69,1.03-.21,2.08.4,2.08.4,0,0-.37,3.83-.44,4.21"/>
    <polygon class="cls-1" points="57.97 10.81 59.69 10.8 59.82 9.3 58.13 9.3 57.97 10.81"/>
    <polygon class="cls-1" points="57.15 20 58.68 20 59.48 11.97 57.94 11.97 57.15 20"/>
    <polygon class="cls-1" points="73.51 10.83 75.23 10.82 75.36 9.32 73.67 9.32 73.51 10.83"/>
    <polygon class="cls-1" points="72.69 20.02 74.21 20.02 75.02 11.99 73.47 11.99 72.69 20.02"/>
    <path class="cls-1" d="M63.97,11.81c-1.56.05-3.19.87-3.23,2.7.02,1,.58,1.88,2.33,2.14.31.08,2.01.23,1.82,1.22-.1.43-.27,1.19-2.04,1.06-.32-.03-1.43-.23-2.32-1.06-.02.01-.16,0-.16,0l-.18,1.62s.95.56,2.35.72c.16.03,2.32.16,3.4-1.22.21-.22,1.42-2.3-.56-3.33-.31-.16-1.27-.32-1.87-.45-.13-.03-1.59-.26-1.08-1.5.1-.1.35-.72,1.9-.66.64.08,1.22.26,2.01.87.02.02.18,0,.18,0l.16-1.51s-1.14-.66-2.7-.61"/>
    <path class="cls-1" d="M70.1,9.75h-1.51s-.23,2.23-.23,2.23h-.93l-.13,1.22.92.02-.45,4.73s-.21,2.14,1.98,2.25c.34.01,1.29-.02,1.9-.24.05-.21.14-1.32.14-1.32,0,0-.88.31-1.33.29-.45-.02-1.22.03-1.13-1.34.08-.87.4-4.36.4-4.36h2.58l.14-1.24h-2.56l.21-2.25Z"/>
    <polygon class="cls-1" points="88.01 8.56 84.18 8.58 80.24 13.24 80.74 8.56 77.46 8.54 76.33 20.01 79.56 20.03 79.92 16.28 80.43 15.67 83.06 20.01 86.93 20.03 83.2 13.98 88.01 8.56"/>
  </g>
</svg>